<svg width="0" height="0" class="hidden">
  <symbol fill="none" xmlns="http://www.w3.org/2000/svg" viewBox="0 0 25 24" id="Apple">
    <path d="M6.00059 13.4099C5.9247 12.2745 6.21561 11.1449 6.83051 10.1875C7.87546 8.44985 10.0938 7.82717 11.8898 8.768C12.495 9.08421 13.213 9.09491 13.827 8.79817C14.3037 8.57925 14.8067 8.42358 15.3233 8.3331C16.6748 8.09181 18.0505 8.59287 18.93 9.64657C19.1178 9.85576 19.0721 9.97154 18.8551 10.1389C17.6574 10.9853 17.0892 12.471 17.4142 13.9013C17.6156 14.9433 18.2723 15.8403 19.2044 16.3472C19.5654 16.5623 19.5634 16.5564 19.4253 16.9534C19.0098 18.083 18.3881 19.125 17.5903 20.0269C16.9131 21.0057 15.586 21.2801 14.5751 20.6515C13.5808 20.1836 12.4259 20.205 11.4501 20.7089C10.5627 21.2431 9.41563 21.0242 8.78613 20.202C7.83557 19.196 7.10197 18.0051 6.63203 16.7033" stroke="#000000" stroke-width="1.5" stroke-linecap="round" stroke-linejoin="round"></path>
    <path fill-rule="evenodd" clip-rule="evenodd" d="M12.7723 6.98031C12.5222 4.88167 13.9661 3.12843 16.0501 3C16.4626 5.17161 14.9906 6.94626 12.782 6.97934C12.7791 6.97934 12.7752 6.98031 12.7723 6.98031Z" stroke="#000000" stroke-width="1.5" stroke-linecap="round" stroke-linejoin="round"></path>
  </symbol>
  <symbol version="1.1" xmlns="http://www.w3.org/2000/svg" xmlns:xlink="http://www.w3.org/1999/xlink" viewBox="0 0 24 24" id="Location">
    <title>Iconly/Bulk/Location</title>
    <g id="Iconly/Bulk/Location" stroke="none" stroke-width="1.5" fill="none" fill-rule="evenodd">
      <g id="Location" transform="translate(5.000000, 2.000000)" fill="#000000" fill-rule="nonzero">
        <path d="M3.53162364,0.93677136 C5.71648131,-0.332725549 8.40202895,-0.310536831 10.5663829,0.994894436 C12.7094606,2.32691389 14.0119656,4.70417621 13.9999171,7.2614437 C13.9499525,9.80193665 12.5532948,12.19 10.8074726,14.0360916 C9.79983405,15.1064007 8.67261414,16.0528287 7.44884341,16.8560387 C7.32280695,16.9289175 7.18475052,16.9777069 7.04148491,17 C6.90359952,16.9941293 6.76931787,16.9533854 6.65075329,16.8814437 C4.78242676,15.6745675 3.14333538,14.1340363 1.81233196,12.3339613 C0.698588545,10.8313638 0.0658356762,9.01600687 1.16173251e-06,7.13441906 L1.16173251e-06,7.13441906 L0.00498738283,6.86069219 C0.0959232361,4.40464541 1.42479659,2.16092909 3.53162364,0.93677136 Z M7.90726427,5.03477398 C7.01907148,4.65723455 5.99504406,4.86234968 5.31331796,5.5543476 C4.63159185,6.24634553 4.42664239,7.28872472 4.794164,8.19478048 C5.1616856,9.10083625 6.029182,9.69184263 6.99160428,9.69184862 C7.62210424,9.69637563 8.22818849,9.44382725 8.67481048,8.99047584 C9.12143248,8.53712442 9.37148354,7.92063779 9.36926261,7.27838032 C9.37261286,6.29803506 8.79545706,5.41231342 7.90726427,5.03477398 Z" id="Path_34175"></path>
        <ellipse id="Ellipse_743" opacity="0.400000006" cx="7" cy="19" rx="5" ry="1"></ellipse>
      </g>
    </g>
  </symbol>
  <symbol fill="none" xmlns="http://www.w3.org/2000/svg" viewBox="0 0 25 24" id="User">
    <path fill-rule="evenodd" clip-rule="evenodd" d="M22.0103 9.94162H19.9653V7.93661H18.4653V9.94162H16.4203V11.4416H18.4653V13.4466H19.9653V11.4416H22.0103V9.94162Z" fill="#000000"></path>
    <path fill-rule="evenodd" clip-rule="evenodd" d="M10.1537 14.3366H10.1007C6.35375 14.3366 3.62375 16.1776 2.60775 19.3906L2.48975 19.7646L2.82375 19.9686C4.78175 21.1626 7.22275 21.7676 10.0807 21.7676C10.1117 21.7686 10.1427 21.7686 10.1747 21.7676C13.0717 21.7676 15.4457 21.1786 17.4307 19.9686L17.7647 19.7646L17.6467 19.3906C16.6317 16.1776 13.9007 14.3366 10.1537 14.3366Z" fill="#000000"></path>
    <path fill-rule="evenodd" clip-rule="evenodd" d="M10.1275 12.1086C12.8505 12.1086 15.0655 9.89363 15.0655 7.17063C15.0655 4.44663 12.8505 2.23163 10.1275 2.23163C7.40445 2.23163 5.18945 4.44663 5.18945 7.17063C5.18945 9.89363 7.40445 12.1086 10.1275 12.1086Z" fill="#000000"></path>
  </symbol>
</svg>


